<svg xmlns="http://www.w3.org/2000/svg" viewBox="0 0 1080 1920" width="1080" height="1920">
  <defs>
    <radialGradient id="nebula1" cx="40%" cy="30%" r="55%">
      <stop offset="0%" stop-color="#dc2626" stop-opacity="0.7"/>
      <stop offset="50%" stop-color="#7f1d1d" stop-opacity="0.4"/>
      <stop offset="100%" stop-color="#000000" stop-opacity="0"/>
    </radialGradient>
    <radialGradient id="nebula2" cx="68%" cy="65%" r="45%">
      <stop offset="0%" stop-color="#b91c1c" stop-opacity="0.45"/>
      <stop offset="100%" stop-color="#000000" stop-opacity="0"/>
    </radialGradient>
    <radialGradient id="lava" cx="50%" cy="85%" r="30%">
      <stop offset="0%" stop-color="#f97316" stop-opacity="0.3"/>
      <stop offset="100%" stop-color="#000000" stop-opacity="0"/>
    </radialGradient>
    <filter id="blur8"><feGaussianBlur stdDeviation="8"/></filter>
  </defs>
  <rect width="1080" height="1920" fill="#090001"/>
  <rect width="1080" height="1920" fill="url(#nebula1)"/>
  <rect width="1080" height="1920" fill="url(#nebula2)"/>
  <rect width="1080" height="1920" fill="url(#lava)"/>
  <ellipse cx="250" cy="700" rx="280" ry="70" fill="#7f1d1d" opacity="0.14" transform="rotate(-18 250 700)" filter="url(#blur8)"/>
  <ellipse cx="820" cy="1300" rx="240" ry="55" fill="#b91c1c" opacity="0.1" transform="rotate(12 820 1300)" filter="url(#blur8)"/>
  <!-- Stars -->
  <circle cx="112" cy="98"  r="2.1" fill="white" opacity="0.9"/>
  <circle cx="345" cy="156" r="1.7" fill="white" opacity="0.8"/>
  <circle cx="589" cy="72"  r="2.4" fill="white" opacity="0.95"/>
  <circle cx="789" cy="189" r="1.5" fill="white" opacity="0.75"/>
  <circle cx="934" cy="112" r="2.0" fill="white" opacity="0.88"/>
  <circle cx="67"  cy="312" r="1.8" fill="white" opacity="0.82"/>
  <circle cx="423" cy="278" r="1.4" fill="white" opacity="0.7"/>
  <circle cx="712" cy="345" r="2.2" fill="white" opacity="0.92"/>
  <circle cx="189" cy="489" r="1.6" fill="white" opacity="0.78"/>
  <circle cx="534" cy="512" r="2.0" fill="white" opacity="0.88"/>
  <circle cx="867" cy="567" r="1.5" fill="white" opacity="0.72"/>
  <circle cx="278" cy="678" r="1.9" fill="white" opacity="0.85"/>
  <circle cx="601" cy="734" r="1.4" fill="white" opacity="0.68"/>
  <circle cx="945" cy="812" r="2.1" fill="white" opacity="0.9"/>
  <circle cx="134" cy="923" r="1.7" fill="white" opacity="0.8"/>
  <circle cx="456" cy="978" r="2.3" fill="white" opacity="0.93"/>
  <circle cx="723" cy="1045" r="1.5" fill="white" opacity="0.72"/>
  <circle cx="312" cy="1156" r="1.8" fill="white" opacity="0.82"/>
  <circle cx="645" cy="1212" r="2.0" fill="white" opacity="0.88"/>
  <circle cx="889" cy="1267" r="1.4" fill="white" opacity="0.7"/>
  <circle cx="56"  cy="1389" r="2.2" fill="white" opacity="0.92"/>
  <circle cx="389" cy="1445" r="1.6" fill="white" opacity="0.78"/>
  <circle cx="712" cy="1512" r="1.9" fill="white" opacity="0.85"/>
  <circle cx="167" cy="1634" r="1.5" fill="white" opacity="0.72"/>
  <circle cx="534" cy="1689" r="2.1" fill="white" opacity="0.9"/>
  <circle cx="845" cy="1756" r="1.7" fill="white" opacity="0.8"/>
  <circle cx="234" cy="1867" r="1.4" fill="white" opacity="0.68"/>
  <!-- Warm orange-tinted stars -->
  <circle cx="560" cy="420" r="1.8" fill="#fca5a5" opacity="0.7"/>
  <circle cx="340" cy="560" r="1.5" fill="#fdba74" opacity="0.6"/>
</svg>
