<svg xmlns="http://www.w3.org/2000/svg" viewBox="0 0 1080 1920" width="1080" height="1920">
  <defs>
    <radialGradient id="nebula1" cx="35%" cy="28%" r="55%">
      <stop offset="0%" stop-color="#6d28d9" stop-opacity="0.85"/>
      <stop offset="50%" stop-color="#4c1d95" stop-opacity="0.4"/>
      <stop offset="100%" stop-color="#000000" stop-opacity="0"/>
    </radialGradient>
    <radialGradient id="nebula2" cx="72%" cy="68%" r="45%">
      <stop offset="0%" stop-color="#7c3aed" stop-opacity="0.5"/>
      <stop offset="60%" stop-color="#312e81" stop-opacity="0.25"/>
      <stop offset="100%" stop-color="#000000" stop-opacity="0"/>
    </radialGradient>
    <radialGradient id="nebula3" cx="55%" cy="50%" r="35%">
      <stop offset="0%" stop-color="#a78bfa" stop-opacity="0.2"/>
      <stop offset="100%" stop-color="#000000" stop-opacity="0"/>
    </radialGradient>
    <filter id="blur4"><feGaussianBlur stdDeviation="4"/></filter>
    <filter id="blur8"><feGaussianBlur stdDeviation="8"/></filter>
  </defs>

  <!-- Deep space base -->
  <rect width="1080" height="1920" fill="#03000a"/>

  <!-- Nebula layers -->
  <rect width="1080" height="1920" fill="url(#nebula1)"/>
  <rect width="1080" height="1920" fill="url(#nebula2)"/>
  <rect width="1080" height="1920" fill="url(#nebula3)"/>

  <!-- Dust cloud streaks -->
  <ellipse cx="200" cy="600" rx="300" ry="80" fill="#4c1d95" opacity="0.12" transform="rotate(-20 200 600)" filter="url(#blur8)"/>
  <ellipse cx="850" cy="1200" rx="250" ry="60" fill="#7c3aed" opacity="0.1" transform="rotate(15 850 1200)" filter="url(#blur8)"/>
  <ellipse cx="400" cy="1500" rx="350" ry="90" fill="#6d28d9" opacity="0.08" transform="rotate(-10 400 1500)" filter="url(#blur8)"/>

  <!-- Stars — foreground (bright) -->
  <circle cx="89"  cy="112" r="2.2" fill="white" opacity="0.95"/>
  <circle cx="234" cy="67"  r="1.8" fill="white" opacity="0.9"/>
  <circle cx="412" cy="145" r="1.5" fill="white" opacity="0.85"/>
  <circle cx="678" cy="88"  r="2.5" fill="white" opacity="0.95"/>
  <circle cx="820" cy="203" r="1.6" fill="white" opacity="0.8"/>
  <circle cx="945" cy="55"  r="1.9" fill="white" opacity="0.9"/>
  <circle cx="156" cy="298" r="1.4" fill="white" opacity="0.75"/>
  <circle cx="502" cy="334" r="2.1" fill="white" opacity="0.9"/>
  <circle cx="763" cy="445" r="1.7" fill="white" opacity="0.85"/>
  <circle cx="38"  cy="512" r="1.5" fill="white" opacity="0.8"/>
  <circle cx="614" cy="567" r="2.3" fill="white" opacity="0.95"/>
  <circle cx="891" cy="634" r="1.6" fill="white" opacity="0.8"/>
  <circle cx="327" cy="712" r="1.9" fill="white" opacity="0.85"/>
  <circle cx="71"  cy="789" r="1.4" fill="white" opacity="0.7"/>
  <circle cx="489" cy="823" r="2.0" fill="white" opacity="0.9"/>
  <circle cx="734" cy="878" r="1.5" fill="white" opacity="0.8"/>
  <circle cx="978" cy="901" r="2.2" fill="white" opacity="0.9"/>
  <circle cx="183" cy="967" r="1.7" fill="white" opacity="0.75"/>
  <circle cx="556" cy="1034" r="1.8" fill="white" opacity="0.85"/>
  <circle cx="812" cy="1112" r="2.4" fill="white" opacity="0.95"/>
  <circle cx="103" cy="1189" r="1.6" fill="white" opacity="0.8"/>
  <circle cx="398" cy="1234" r="1.4" fill="white" opacity="0.7"/>
  <circle cx="645" cy="1289" r="2.0" fill="white" opacity="0.88"/>
  <circle cx="890" cy="1345" r="1.5" fill="white" opacity="0.75"/>
  <circle cx="247" cy="1412" r="1.8" fill="white" opacity="0.85"/>
  <circle cx="534" cy="1467" r="2.1" fill="white" opacity="0.9"/>
  <circle cx="778" cy="1523" r="1.6" fill="white" opacity="0.8"/>
  <circle cx="45"  cy="1589" r="1.9" fill="white" opacity="0.85"/>
  <circle cx="312" cy="1634" r="1.4" fill="white" opacity="0.7"/>
  <circle cx="689" cy="1698" r="2.3" fill="white" opacity="0.92"/>
  <circle cx="923" cy="1756" r="1.7" fill="white" opacity="0.82"/>
  <circle cx="167" cy="1812" r="1.5" fill="white" opacity="0.75"/>
  <circle cx="456" cy="1867" r="2.0" fill="white" opacity="0.88"/>

  <!-- Stars — midground (medium) -->
  <circle cx="178" cy="188" r="1.0" fill="white" opacity="0.6"/>
  <circle cx="356" cy="223" r="0.8" fill="white" opacity="0.55"/>
  <circle cx="567" cy="167" r="1.1" fill="white" opacity="0.65"/>
  <circle cx="745" cy="312" r="0.9" fill="white" opacity="0.5"/>
  <circle cx="934" cy="389" r="1.0" fill="white" opacity="0.6"/>
  <circle cx="123" cy="445" r="0.8" fill="white" opacity="0.5"/>
  <circle cx="467" cy="489" r="1.2" fill="white" opacity="0.65"/>
  <circle cx="689" cy="534" r="0.9" fill="white" opacity="0.55"/>
  <circle cx="845" cy="612" r="1.0" fill="white" opacity="0.6"/>
  <circle cx="278" cy="678" r="0.8" fill="white" opacity="0.5"/>
  <circle cx="590" cy="723" r="1.1" fill="white" opacity="0.6"/>
  <circle cx="1001" cy="767" r="0.9" fill="white" opacity="0.55"/>
  <circle cx="134" cy="856" r="1.0" fill="white" opacity="0.6"/>
  <circle cx="423" cy="912" r="0.8" fill="white" opacity="0.5"/>
  <circle cx="712" cy="978" r="1.2" fill="white" opacity="0.65"/>
  <circle cx="56"  cy="1056" r="0.9" fill="white" opacity="0.55"/>
  <circle cx="389" cy="1123" r="1.0" fill="white" opacity="0.6"/>
  <circle cx="623" cy="1167" r="0.8" fill="white" opacity="0.5"/>
  <circle cx="867" cy="1234" r="1.1" fill="white" opacity="0.6"/>
  <circle cx="212" cy="1312" r="0.9" fill="white" opacity="0.55"/>
  <circle cx="501" cy="1378" r="1.0" fill="white" opacity="0.6"/>
  <circle cx="756" cy="1423" r="0.8" fill="white" opacity="0.5"/>
  <circle cx="978" cy="1489" r="1.2" fill="white" opacity="0.65"/>
  <circle cx="89"  cy="1556" r="0.9" fill="white" opacity="0.55"/>
  <circle cx="334" cy="1601" r="1.0" fill="white" opacity="0.6"/>
  <circle cx="623" cy="1656" r="0.8" fill="white" opacity="0.5"/>
  <circle cx="845" cy="1712" r="1.1" fill="white" opacity="0.6"/>
  <circle cx="178" cy="1778" r="0.9" fill="white" opacity="0.55"/>
  <circle cx="412" cy="1834" r="1.0" fill="white" opacity="0.6"/>
  <circle cx="712" cy="1889" r="0.8" fill="white" opacity="0.5"/>

  <!-- Bright purple tinted stars near center glow -->
  <circle cx="390" cy="440" r="2.0" fill="#c4b5fd" opacity="0.8" filter="url(#blur4)"/>
  <circle cx="612" cy="380" r="1.8" fill="#ddd6fe" opacity="0.7" filter="url(#blur4)"/>
  <circle cx="280" cy="520" r="1.5" fill="#c4b5fd" opacity="0.65" filter="url(#blur4)"/>
</svg>
